<svg id="Layer_1_1_" enable-background="new 0 0 64 64" height="512" viewBox="0 0 64 64" width="512" xmlns="http://www.w3.org/2000/svg"><path d="m43.211 59.894-.211.106s5.738-11.203 6-21c.162-6.043-1.726-9.855-4.973-13.552-.324-.369-.671-.717-1.027-1.054l-22 .106c-3.825 3.864-5.685 6.49-6 13.5-.332 7.395 5.133 20.175 6.664 21.851-.792-.296-1.664.276-1.664 1.149h7v-9.597c0-.135.005-.27.016-.403l9.984.403v9.597h8c0-.919-.967-1.517-1.789-1.106z" fill="#ffd4d4"/><g fill="#e3bdbd"><path d="m26.876 51.204c-1.268-1.014-3.123-4.654-4.143-7.464-.185-.511-.675-.843-1.218-.843-.809 0-1.442.731-1.289 1.526.562 2.926 2.054 6.09 4.259 7.853.786.628 1.632 1.14 2.515 1.543v-2.417c0-.038.004-.075.005-.113-.042-.031-.088-.052-.129-.085z"/><path d="m39.492 52.277c2.468-1.974 4.042-4.827 4.42-7.927.094-.773-.525-1.453-1.303-1.453h-.665c-.624 0-1.175.439-1.279 1.054-.627 3.684-2.081 6.077-3.55 7.253-.091.073-.193.123-.287.192l.172.007v2.405c.874-.401 1.713-.908 2.492-1.531z"/><path d="m44.027 25.448c-.324-.369-.671-.717-1.027-1.054l-22 .106c-.74.747-1.404 1.448-2 2.144v1.242c0 1.859.505 3.683 1.462 5.277 1.339 2.231 3.476 3.871 5.978 4.585l4.378 1.252h1.182 1.182l4.379-1.251c2.502-.715 4.639-2.354 5.978-4.585.956-1.595 1.461-3.419 1.461-5.278v-1.26c-.311-.395-.63-.788-.973-1.178z"/></g><path d="m23.828 45.467c.181 2.241 1.278 4.321 3.049 5.738 2.993 2.394 7.245 2.394 10.237 0 1.944-1.555 3.075-3.909 3.075-6.398" fill="#ffd4d4"/><path d="m53 3-5.57 1.671c-2.863.859-5.338 2.69-6.996 5.178l-1.434 2.151-3.143-1.257c-1.227-.491-2.536-.743-3.857-.743s-2.63.252-3.857.743l-3.143 1.257-1.434-2.152c-1.658-2.487-4.132-4.318-6.996-5.178l-5.57-1.67s1 3 1 5-2 8 1 10 5 1 6 1l2 3v2.5 2.096c0 1.573.428 3.117 1.237 4.466 1.133 1.888 2.941 3.275 5.058 3.88l3.705 1.058h1 1l3.705-1.059c2.117-.605 3.925-1.992 5.058-3.88.809-1.348 1.237-2.892 1.237-4.465v-2.203-2.393l2-3c1 0 3 1 6-1s1-8 1-10 1-5 1-5z" fill="#ffd4d4"/><ellipse cx="32" cy="28.5" fill="#e18080" rx="5" ry="4.5"/><path d="m51 18c3-2 1-8 1-10 0-1.226.375-2.824.666-3.88-1.605.592-8.591 3.58-9.666 7.88-1 4 2 7 2 7 1 0 3 1 6-1z" fill="#e18080"/><path d="m12.453 3.436-1.453-.436s1 3 1 5-2 8 1 10 5 1 6 1l.118.176c.853-2.291 2.882-4.176 1.882-7.176-.613-1.838-5.002-5.958-8.547-8.564z" fill="#e18080"/><circle cx="26" cy="21" r="1"/><circle cx="38" cy="21" r="1"/><path d="m44.895 16.554c-.009-.018-.895-1.824-.895-3.554 0-.978 1.924-3.509 3.707-5.293l-1.414-1.414c-.717.717-4.293 4.409-4.293 6.707 0 2.211 1.061 4.356 1.105 4.447z"/><path d="m27.772 9.814-2.39.956-.984-1.477c-1.783-2.675-4.461-4.656-7.541-5.581l-5.57-1.671c-.356-.106-.744-.007-1.005.262-.26.268-.349.658-.231 1.013.01.029.949 2.868.949 4.684 0 .395-.113 1.095-.232 1.835-.456 2.833-1.146 7.115 1.677 8.997 2.71 1.807 4.753 1.456 5.974 1.247.03-.006.06-.011.088-.016l1.493 2.24v1.792c-3.965 4.059-5.69 6.989-5.999 13.861-.273 6.072 3.541 16.837 6.032 21.16-.647.411-1.033 1.114-1.033 1.884 0 .553.448 1 1 1h7c.552 0 1-.447 1-1v-7.916c1.264.616 2.628.931 3.995.931 1.37 0 2.738-.317 4.005-.936v7.921c0 .553.448 1 1 1h8c.552 0 1-.447 1-1 0-.78-.396-1.492-1.061-1.902-.103-.063-.209-.118-.318-.163 1.582-3.431 5.167-12.03 5.378-19.908.068-2.536-.215-4.749-.862-6.822.762-.897 1.763-1.961 2.899-2.666.221.71.833 2.284 2.003 2.648.346.106 1.028.194 1.715-.43 1.875-1.701 1.151-3.085.884-3.469-.584-.84-1.857-1.284-3.115-1.259-.186-.955-.36-1.995-.533-3.174l-1.979.289c.183 1.247.367 2.347.565 3.356-.009.005-.018.009-.027.014-1.241.643-2.334 1.636-3.218 2.585-.838-1.806-1.996-3.539-3.552-5.312-.23-.261-.492-.53-.779-.813v-1.671l1.493-2.239c.029.005.058.01.088.016 1.22.209 3.265.559 5.974-1.247 2.823-1.882 2.133-6.164 1.677-8.997-.119-.741-.232-1.441-.232-1.836 0-1.812.939-4.655.949-4.684.118-.354.029-.745-.231-1.013s-.649-.369-1.004-.262l-5.57 1.671c-3.079.925-5.757 2.906-7.54 5.581l-.984 1.477-2.39-.956c-2.702-1.08-5.759-1.08-8.458 0zm27.223 19.616c.031.045-.029.3-.464.729-.18-.226-.412-.674-.559-1.119.494.049.899.211 1.023.39zm-6.995 9.544c-.253 9.449-5.834 20.461-5.891 20.57-.073.144-.109.301-.109.456h-4v-8.25c2.024-1.749 3.188-4.255 3.188-6.944h-2c0 2.197-.984 4.244-2.7 5.616-2.646 2.119-6.341 2.117-8.987 0-1.542-1.232-2.518-3.068-2.677-5.036l-1.993.161c.194 2.402 1.349 4.644 3.169 6.214v8.239h-3c0-.07-.007-.142-.023-.213-.064-.295-.259-.546-.53-.682l-.189-.095c-1.485-1.94-6.573-13.97-6.259-20.966.251-5.597 1.462-8.165 4.028-11.058.066 1.617.518 3.198 1.353 4.589 1.269 2.113 3.272 3.65 5.641 4.327l3.705 1.059c.088.026.181.039.274.039h2c.093 0 .186-.013.275-.038l3.705-1.059c2.369-.677 4.373-2.214 5.641-4.327.839-1.398 1.292-2.987 1.354-4.613 2.96 3.667 4.153 7.224 4.025 12.011zm-9.371-26.045c.439.175.942.02 1.203-.374l1.435-2.151c1.525-2.288 3.816-3.984 6.451-4.774l3.818-1.146c-.266 1.062-.536 2.411-.536 3.516 0 .555.119 1.295.257 2.152.375 2.328.941 5.847-.812 7.016-2.047 1.365-3.48 1.119-4.526.939-.322-.055-.627-.107-.919-.107-.334 0-.646.167-.832.445l-2 3c-.109.164-.168.358-.168.555v4.596c0 1.392-.378 2.758-1.094 3.951-1.006 1.677-2.596 2.896-4.476 3.433l-3.57 1.02h-1.72l-3.571-1.021c-1.879-.536-3.469-1.756-4.475-3.433-.716-1.192-1.094-2.559-1.094-3.95v-4.596c0-.197-.059-.391-.168-.555l-2-3c-.186-.278-.498-.445-.832-.445-.292 0-.597.052-.919.107-1.045.18-2.479.427-4.526-.939-1.753-1.169-1.187-4.688-.812-7.016.138-.857.257-1.597.257-2.152 0-1.105-.27-2.454-.536-3.517l3.818 1.146c2.635.79 4.926 2.486 6.451 4.774l1.435 2.151c.262.393.764.548 1.203.374l3.144-1.257c2.226-.893 4.745-.893 6.971 0z"/><path d="m16.293 7.707c1.783 1.784 3.707 4.315 3.707 5.293 0 1.73-.886 3.536-.895 3.554l1.79.894c.044-.092 1.105-2.237 1.105-4.448 0-2.298-3.576-5.99-4.293-6.707z"/><path d="m26 28.5c0 3.032 2.691 5.5 6 5.5s6-2.468 6-5.5-2.691-5.5-6-5.5-6 2.468-6 5.5zm10 0c0 1.93-1.794 3.5-4 3.5s-4-1.57-4-3.5 1.794-3.5 4-3.5 4 1.57 4 3.5z"/><path d="m30 28h1v2h-1z"/><path d="m33 28h1v2h-1z"/></svg>