<svg height="512" viewBox="0 0 60 60" width="512" xmlns="http://www.w3.org/2000/svg"><g id="Page-1" fill="none" fill-rule="evenodd"><g id="001---Tractor"><path id="Shape" d="m1 44h58v13c0 1.1045695-.8954305 2-2 2h-54c-1.1045695 0-2-.8954305-2-2z" fill="#a0522d" fill-rule="nonzero"/><path id="Shape" d="m56 44v15h1c1.1045695 0 2-.8954305 2-2v-13z" fill="#783e22" fill-rule="nonzero"/><path id="Shape" d="m13 20c-6.49723804.0009417-11.81361528 5.1727383-11.99365283 11.6674816-.18003755 6.4947432 4.84166602 11.9531166 11.32887423 12.3139937 6.4872083.3608771 12.083342-4.5068364 12.6247786-10.9814753.03-.33.04-.66.04-1 0-6.627417-5.372583-12-12-12zm0 20c-4.418278 0-8-3.581722-8-8s3.581722-8 8-8 8 3.581722 8 8c-.0060592 4.4157658-3.5842342 7.9939408-8 8z" fill="#37474f" fill-rule="nonzero"/><path id="Shape" d="m13 24c-4.418278 0-8 3.581722-8 8s3.581722 8 8 8 8-3.581722 8-8c-.0060592-4.4157658-3.5842342-7.9939408-8-8zm0 10c-1.1045695 0-2-.8954305-2-2s.8954305-2 2-2 2 .8954305 2 2c-.0032948 1.1032019-.8967981 1.9967052-2 2z" fill="#ffdc00" fill-rule="nonzero"/><path id="Shape" d="m13 24c-.5034862.0012374-1.0057254.050122-1.5.146 3.7617378.7286911 6.4785914 4.0223343 6.4785914 7.854s-2.7168536 7.1253089-6.4785914 7.854c2.9882143.5787933 6.0459964-.5882722 7.8886671-3.0108722 1.8426707-2.4225999 2.1509569-5.6809788.7953368-8.4061798s-4.1402627-4.4450378-7.1840039-4.436948z" fill="#fec108" fill-rule="nonzero"/><circle id="Oval" cx="13" cy="32" fill="#cfd8dc" fill-rule="nonzero" r="2"/><path id="Shape" d="m58 30.89c-1.8119228-3.5299266-5.7229294-5.4554568-9.6255074-4.7389858-3.902578.7164709-6.8745802 3.9056468-7.3144926 7.8489858-.0402091.3318128-.060246.6657599-.06 1 0 4.9705627 4.0294373 9 9 9s9-4.0294373 9-9c.0024315-1.4305305-.340625-2.8404929-1-4.11zm-8 9.11c-2.7614237 0-5-2.2385763-5-5s2.2385763-5 5-5 5 2.2385763 5 5-2.2385763 5-5 5z" fill="#37474f" fill-rule="nonzero"/><circle id="Oval" cx="50" cy="35" fill="#ffdc00" fill-rule="nonzero" r="5"/><path id="Shape" d="m50 30c-.5101742.0069635-1.0161845.0929853-1.5.255 2.0814019.6426105 3.5010321 2.5666561 3.5010321 4.745s-1.4196302 4.1023895-3.5010321 4.745c.4838155.1620147.9898258.2480365 1.5.255 2.7614237 0 5-2.2385763 5-5s-2.2385763-5-5-5z" fill="#fec108" fill-rule="nonzero"/><path id="Shape" d="m29 32v1h-4.04c.03-.33.04-.66.04-1-.004841-4.1698987-2.1715675-8.0390616-5.7243677-10.2221075s-7.983491-2.3677177-11.7056323-.4878925l-2.05-3.43c2.07741483-1.1091307 4.37725659-1.7379135 6.73-1.84.25-.01.5-.02.75-.02 4.2434638 0 8.3131264 1.6857094 11.3137085 4.6862915s4.6862915 7.0702447 4.6862915 11.3137085z" fill="#545c60" fill-rule="nonzero"/><path id="Shape" d="m5.52 17.86c-.52469464.2721517-1.03230353.5760491-1.52.91" stroke="#000" stroke-linecap="round" stroke-linejoin="round" stroke-width="2"/><path id="Shape" d="m58 19v2h-12v5.94c-2.7406719 1.3594854-4.6018698 4.0194161-4.94 7.06h-12.06v-2c.002655-1.6987414-.2674491-3.3868915-.8-5h5.8c.5522847 0 1-.4477153 1-1v-10h20c1.6568542 0 3 1.3431458 3 3z" fill="#008a00" fill-rule="nonzero"/><path id="Shape" d="m43 26.94c-2.7406719 1.3594854-4.6018698 4.0194161-4.94 7.06h3c.3381302-3.0405839 2.1993281-5.7005146 4.94-7.06v-5.94h-3z" fill="#007900" fill-rule="nonzero"/><path id="Shape" d="m55 16h-3c1.6568542 0 3 1.3431458 3 3v2h3v-2c0-1.6568542-1.3431458-3-3-3z" fill="#007900" fill-rule="nonzero"/><path id="Shape" d="m58 21v9.89c-2.2436821-4.3803071-7.5932001-6.1411901-12-3.95v-5.94z" fill="#7f8e94" fill-rule="nonzero"/><path id="Shape" d="m55 21v6.538c1.2667246.8464057 2.2987397 1.9995106 3 3.352v-9.89z" fill="#545c60" fill-rule="nonzero"/><path id="Shape" d="m50 26v-5" stroke="#000" stroke-linejoin="round" stroke-width="2"/><g fill-rule="nonzero"><path id="Shape" d="m35 5v21c0 .5522847-.4477153 1-1 1h-5.8c-.9728863-2.9468261-2.7791009-5.5484698-5.2-7.49v-14.51z" fill="#02a9f4"/><path id="Shape" d="m32 5v21c0 .5522847-.4477153 1-1 1h3c.5522847 0 1-.4477153 1-1v-21z" fill="#0377bc"/><path id="Shape" d="m23 5v14.51c-2.8345577-2.2778862-6.3635952-3.5165784-10-3.51-.25 0-.5.01-.75.02l2.75-11.02z" fill="#02a9f4"/><path id="Shape" d="m38 3c.0028231.53059053-.2101411 1.0395388-.59 1.41-.3704612.3798589-.8794095.59282307-1.41.59h-21c-1.1032019-.0032948-1.9967052-.89679813-2-2-.0028231-.53059053.2101411-1.0395388.59-1.41.3704612-.3798589.8794095-.59282307 1.41-.59h21c1.1032019.0032948 1.9967052.89679813 2 2z" fill="#008a00"/><path id="Shape" d="m36 1h-3c1.1032019.0032948 1.9967052.89679813 2 2 .0028231.53059053-.2101411 1.0395388-.59 1.41-.3704612.3798589-.8794095.59282307-1.41.59002771l3-.00002771c.5305905.00282307 1.0395388-.2101411 1.41-.59.3798589-.3704612.5928231-.87940947.59-1.41-.0032948-1.10320187-.8967981-1.9967052-2-2z" fill="#007900"/><path id="Shape" d="m35 34v3c-.0032948 1.1032019-.8967981 1.9967052-2 2h-2c-1.1032019-.0032948-1.9967052-.8967981-2-2v-3z" fill="#9e9e9e"/><path id="Shape" d="m32 34v3c-.0038609.9088331-.6200161 1.7007979-1.5 1.928.1627756.0458819.3308924.0700907.5.072h2c1.1032019-.0032948 1.9967052-.8967981 2-2v-3z" fill="#707070"/><path id="Shape" d="m13 23c-4.97056275 0-9 4.0294373-9 9s4.02943725 9 9 9c4.9705627 0 9-4.0294373 9-9-.006061-4.9680501-4.0319499-8.993939-9-9zm0 16c-3.86599325 0-7-3.1340068-7-7s3.13400675-7 7-7c3.8659932 0 7 3.1340068 7 7-.0044086 3.8641657-3.1358343 6.9955914-7 7z" fill="#000"/><path id="Shape" d="m13 29c-1.6568542 0-3 1.3431458-3 3s1.3431458 3 3 3 3-1.3431458 3-3-1.3431458-3-3-3zm0 4c-.5522847 0-1-.4477153-1-1s.4477153-1 1-1 1 .4477153 1 1-.4477153 1-1 1z" fill="#000"/><path id="Shape" d="m50 29c-3.3137085 0-6 2.6862915-6 6s2.6862915 6 6 6 6-2.6862915 6-6c-.0033074-3.3123376-2.6876624-5.9966926-6-6zm0 10c-2.209139 0-4-1.790861-4-4s1.790861-4 4-4 4 1.790861 4 4-1.790861 4-4 4z" fill="#000"/><circle id="Oval" cx="50" cy="35" fill="#000" r="1"/><path id="Shape" d="m39 22h1c.5522847 0 1-.4477153 1-1s-.4477153-1-1-1h-1c-.5522847 0-1 .4477153-1 1s.4477153 1 1 1z" fill="#000"/><path id="Shape" d="m0 44c0 .5522847.44771525 1 1 1h11.523l-5.452 13.628c-.09854514.2462521-.09522227.5215667.00923748.7653686.10445976.243802.30149818.4361169.54776252.5346314.1183814.0471373.24457988.0715628.372.072.40894499.0003137.77687254-.2484037.929-.628l5.748-14.372h8.323c.5522847 0 1-.4477153 1-1s-.4477153-1-1-1h-3.1c3.1861376-2.0008374 5.3499225-5.2831675 5.933-9h2.167v3c0 1.6568542 1.3431458 3 3 3h2c1.6568542 0 3-1.3431458 3-3v-2h4c.0030485 3.1526562 1.4952773 6.1185767 4.025 8h-17.025c-.5522847 0-1 .4477153-1 1s.4477153 1 1 1h2v14c0 .5522847.4477153 1 1 1s1-.4477153 1-1v-14h14.323l5.748 14.372c.1521275.3795963.520055.6283137.929.628.1273562-.0001189.2535525-.0242047.372-.071.2462643-.0985145.4433028-.2908294.5477625-.5346314.1044598-.2438019.1077826-.5191165.0092375-.7653686l-5.452-13.629h11.523c.5522847 0 1-.4477153 1-1s-.4477153-1-1-1h-3.025c3.8453314-2.8457086 5.1166702-8.0277277 3.025-12.33v-11.67c0-2.209139-1.790861-4-4-4h-19v-9c1.6568542 0 3-1.34314575 3-3s-1.3431458-3-3-3h-21c-1.413186.00521403-2.631109.99597881-2.923857 2.37852009-.2927479 1.38254127.4190709 2.78192168 1.708857 3.35947991l-2.33 9.339c-2.87161952.2658686-5.62974114 1.2519685-8.019 2.867-.29581591.2014978-.46166329.5455053-.43506903.9024383.02659425.356933.24158983.6725648.564.828.32241016.1554352.70325312.1270595.99906903-.0744383.2-.135.4-.255.6-.379l1.036 1.722c-3.83338653 2.3446124-6.17924257 6.507108-6.19961484 11.0006194s2.28764503 8.6771064 6.09961484 11.0563806h-5.1c-.55228475 0-1 .4477153-1 1zm34-7c0 .5522847-.4477153 1-1 1h-2c-.5522847 0-1-.4477153-1-1v-2h4zm16 6c-4.418278 0-8-3.581722-8-8s3.581722-8 8-8 8 3.581722 8 8c-.0049599 4.4162219-3.5837781 7.9950401-8 8zm-1-21v3.051c-.6790448.0671787-1.3492947.2045799-2 .41v-3.461zm4 0v3.461c-.6507053-.2054201-1.3209552-.3428213-2-.41v-3.051zm4 0v5.871c-.6006162-.5875843-1.2725211-1.0975601-2-1.518v-4.353zm-2-5c1.1045695 0 2 .8954305 2 2v1h-13c-.5522847 0-1 .4477153-1 1s.4477153 1 1 1h1v4.353c-2.4746673 1.4298015-4.2210813 3.8482211-4.8 6.647h-10.2v-1c-.0065962-1.3484991-.174455-2.6913695-.5-4h4.5c1.1045695 0 2-.8954305 2-2v-9zm-21 9h-5.114c-1.0177805-2.6875625-2.6985259-5.0741796-4.886-6.938v-13.062h10zm-20.471-10.973 2.252-9.027h6.219v11.6c-2.5443376-1.5963177-5.4686573-2.484557-8.471-2.573zm1.471-13.027h21c.5522847 0 1 .44771525 1 1s-.4477153 1-1 1h-21c-.5522847 0-1-.44771525-1-1s.4477153-1 1-1zm-8.061 16.284c4.6381331-2.0539311 10.0003407-1.6230276 14.2509684 1.1451985s6.8130362 7.4982378 6.8100342 12.5708015h-2.0000026c-.0004335-4.3517385-2.1782666-8.4146254-5.8020671-10.8241271-3.6238004-2.4095017-8.2128618-2.8459915-12.2259329-1.1628729zm-4.939 13.716c0-6.0751322 4.92486775-11 11-11 6.0751322 0 11 4.9248678 11 11s-4.9248678 11-11 11c-6.07216255-.0071635-10.9928365-4.9278374-11-11z" fill="#000"/><path id="Shape" d="m27 13c-.4304304 0-.8125693-.2754301-.9486833-.6837722-.136114-.4083422.004339-.8579696.3486833-1.1162278l4-3c.2858125-.21435937.6642734-.25995645.9928203-.11961526.3285469.14034118.5572656.44529947.6.80000001.0427345.35470055-.1070078.7052559-.3928203.91961525l-4 3c-.1730962.1298221-.3836298.2-.6.2z" fill="#f5f5f5"/><path id="Shape" d="m27 19c-.4304304 0-.8125693-.2754301-.9486833-.6837722-.136114-.4083422.004339-.8579696.3486833-1.1162278l4-3c.2858125-.2143594.6642734-.2599564.9928203-.1196153.3285469.1403412.5572656.4452995.6.8000001.0427345.3547005-.1070078.7052558-.3928203.9196152l-4 3c-.1730962.1298221-.3836298.2-.6.2z" fill="#f5f5f5"/><path id="Shape" d="m17 13c-.4043959-.0000863-.7689341-.2437275-.923678-.6173454-.1547439-.373618-.0692299-.8036603.216678-1.0896546l2-2c.3923789-.37897221 1.0160848-.37355237 1.4018186.01218142.3857338.3857338.3911536 1.00943968.0121814 1.40181858l-2 2c-.1874927.1875494-.4418052.2929434-.707.293z" fill="#f5f5f5"/></g></g></g></svg>